# This file uses centimeters as units for non-parametric coordinates.

v 3.649713 -0.001019 -0.775906
v 3.408667 -0.001019 -1.517903
v 3.018645 -0.001019 -2.193560
v 2.496694 -0.001019 -2.773347
v 1.865626 -0.001019 -3.231926
v 1.153020 -0.001019 -3.549254
v 0.390023 -0.001019 -3.711464
v -0.390020 -0.001019 -3.711464
v -1.153018 -0.001019 -3.549254
v -1.865623 -0.001019 -3.231926
v -2.496690 -0.001019 -2.773348
v -3.018641 -0.001019 -2.193560
v -3.408663 -0.001019 -1.517903
v -3.649710 -0.001019 -0.775907
v -3.731246 -0.001019 0.000000
v -3.649710 -0.001019 0.775907
v -3.408663 -0.001019 1.517903
v -3.018641 -0.001019 2.193559
v -2.496690 -0.001019 2.773348
v -1.865623 -0.001019 3.231926
v -1.153018 -0.001019 3.549254
v -0.390021 -0.001019 3.711464
v 0.390022 -0.001019 3.711464
v 1.153019 -0.001019 3.549253
v 1.865623 -0.001019 3.231925
v 2.496691 -0.001019 2.773347
v 3.018641 -0.001019 2.193559
v 3.408662 -0.001019 1.517903
v 3.649709 -0.001019 0.775907
v 3.731246 -0.001019 0.000001
v 2.346277 15.001620 -0.498804
v 2.191316 15.001620 -0.975809
v 1.940585 15.001620 -1.410166
v 1.605040 15.001620 -1.782891
v 1.199348 15.001620 -2.077697
v 0.741238 15.001620 -2.281696
v 0.250732 15.001620 -2.385975
v -0.250731 15.001620 -2.385975
v -0.741236 15.001620 -2.281696
v -1.199346 15.001620 -2.077697
v -1.605038 15.001620 -1.782892
v -1.940583 15.001620 -1.410166
v -2.191314 15.001620 -0.975809
v -2.346275 15.001620 -0.498804
v -2.398692 15.001620 0.000000
v -2.346275 15.001620 0.498804
v -2.191314 15.001620 0.975809
v -1.940583 15.001620 1.410165
v -1.605038 15.001620 1.782891
v -1.199346 15.001620 2.077696
v -0.741236 15.001620 2.281696
v -0.250731 15.001620 2.385974
v 0.250732 15.001620 2.385974
v 0.741237 15.001620 2.281695
v 1.199346 15.001620 2.077696
v 1.605038 15.001620 1.782891
v 1.940583 15.001620 1.410165
v 2.191314 15.001620 0.975809
v 2.346274 15.001620 0.498804
v 2.398692 15.001620 0.000000
v 0.000001 -0.001019 0.000001
v 0.000000 15.001620 0.000000
vt 0.375000 0.312500
vt 0.383333 0.312500
vt 0.383333 0.688440
vt 0.375000 0.688440
vt 0.391667 0.312500
vt 0.391667 0.688440
vt 0.400000 0.312500
vt 0.400000 0.688440
vt 0.408333 0.312500
vt 0.408333 0.688440
vt 0.416667 0.312500
vt 0.416667 0.688440
vt 0.425000 0.312500
vt 0.425000 0.688440
vt 0.433333 0.312500
vt 0.433333 0.688440
vt 0.441667 0.312500
vt 0.441667 0.688440
vt 0.450000 0.312500
vt 0.450000 0.688440
vt 0.458333 0.312500
vt 0.458333 0.688440
vt 0.466667 0.312500
vt 0.466667 0.688440
vt 0.475000 0.312500
vt 0.475000 0.688440
vt 0.483333 0.312500
vt 0.483333 0.688440
vt 0.491667 0.312500
vt 0.491667 0.688440
vt 0.500000 0.312500
vt 0.500000 0.688440
vt 0.508333 0.312500
vt 0.508333 0.688440
vt 0.516667 0.312500
vt 0.516667 0.688440
vt 0.525000 0.312500
vt 0.525000 0.688440
vt 0.533333 0.312500
vt 0.533333 0.688440
vt 0.541667 0.312500
vt 0.541667 0.688440
vt 0.550000 0.312500
vt 0.550000 0.688440
vt 0.558333 0.312500
vt 0.558333 0.688440
vt 0.566666 0.312500
vt 0.566666 0.688440
vt 0.575000 0.312500
vt 0.575000 0.688440
vt 0.583333 0.312500
vt 0.583333 0.688440
vt 0.591666 0.312500
vt 0.591666 0.688440
vt 0.600000 0.312500
vt 0.600000 0.688440
vt 0.608333 0.312500
vt 0.608333 0.688440
vt 0.616666 0.312500
vt 0.616666 0.688440
vt 0.625000 0.312500
vt 0.625000 0.688440
vt 0.642742 0.092697
vt 0.652836 0.123764
vt 0.500000 0.150000
vt 0.626409 0.064408
vt 0.604552 0.040134
vt 0.578125 0.020933
vt 0.548284 0.007647
vt 0.516333 0.000856
vt 0.483667 0.000856
vt 0.451716 0.007647
vt 0.421875 0.020933
vt 0.395448 0.040134
vt 0.373591 0.064408
vt 0.357258 0.092697
vt 0.347164 0.123764
vt 0.343750 0.156250
vt 0.347164 0.188736
vt 0.357258 0.219803
vt 0.373591 0.248091
vt 0.395448 0.272366
vt 0.421875 0.291567
vt 0.451716 0.304853
vt 0.483667 0.311644
vt 0.516333 0.311644
vt 0.548284 0.304853
vt 0.578125 0.291566
vt 0.604552 0.272366
vt 0.626409 0.248091
vt 0.642742 0.219803
vt 0.652836 0.188736
vt 0.656250 0.156250
vt 0.652836 0.876236
vt 0.642742 0.907303
vt 0.500000 0.837500
vt 0.626409 0.935591
vt 0.604552 0.959866
vt 0.578125 0.979066
vt 0.548284 0.992353
vt 0.516333 0.999144
vt 0.483667 0.999144
vt 0.451716 0.992353
vt 0.421875 0.979066
vt 0.395448 0.959866
vt 0.373591 0.935591
vt 0.357258 0.907303
vt 0.347164 0.876236
vt 0.343750 0.843750
vt 0.347164 0.811264
vt 0.357258 0.780197
vt 0.373591 0.751908
vt 0.395448 0.727634
vt 0.421875 0.708433
vt 0.451716 0.695147
vt 0.483667 0.688356
vt 0.516333 0.688356
vt 0.548284 0.695147
vt 0.578125 0.708433
vt 0.604552 0.727634
vt 0.626409 0.751908
vt 0.642742 0.780197
vt 0.652836 0.811264
vt 0.656250 0.843750
vn 0.974320 0.088474 -0.207059
vn 0.909990 0.088476 -0.405082
vn 0.909989 0.088476 -0.405082
vn 0.974320 0.088474 -0.207059
vn 0.805893 0.088478 -0.585412
vn 0.805893 0.088478 -0.585412
vn 0.666571 0.088482 -0.740171
vn 0.666571 0.088482 -0.740171
vn 0.498105 0.088485 -0.862590
vn 0.498105 0.088485 -0.862590
vn 0.307854 0.088487 -0.947310
vn 0.307854 0.088487 -0.947310
vn 0.104137 0.088488 -0.990619
vn 0.104137 0.088488 -0.990619
vn -0.104137 0.088488 -0.990619
vn -0.104137 0.088488 -0.990619
vn -0.307854 0.088487 -0.947310
vn -0.307854 0.088487 -0.947310
vn -0.498105 0.088485 -0.862590
vn -0.498105 0.088485 -0.862590
vn -0.666571 0.088482 -0.740171
vn -0.666571 0.088482 -0.740171
vn -0.805893 0.088478 -0.585412
vn -0.805893 0.088478 -0.585412
vn -0.909989 0.088476 -0.405082
vn -0.909990 0.088476 -0.405082
vn -0.974319 0.088474 -0.207062
vn -0.974319 0.088474 -0.207062
vn -0.996079 0.088473 0.000000
vn -0.996079 0.088473 0.000000
vn -0.974319 0.088474 0.207062
vn -0.974319 0.088474 0.207062
vn -0.909989 0.088476 0.405082
vn -0.909989 0.088476 0.405082
vn -0.805893 0.088478 0.585412
vn -0.805893 0.088478 0.585412
vn -0.666571 0.088482 0.740171
vn -0.666571 0.088482 0.740171
vn -0.498105 0.088485 0.862590
vn -0.498105 0.088485 0.862590
vn -0.307854 0.088487 0.947310
vn -0.307854 0.088487 0.947310
vn -0.104137 0.088488 0.990619
vn -0.104137 0.088488 0.990619
vn 0.104137 0.088488 0.990619
vn 0.104137 0.088488 0.990619
vn 0.307855 0.088487 0.947310
vn 0.307855 0.088487 0.947310
vn 0.498105 0.088485 0.862590
vn 0.498105 0.088485 0.862590
vn 0.666571 0.088482 0.740171
vn 0.666571 0.088482 0.740171
vn 0.805894 0.088478 0.585412
vn 0.805894 0.088478 0.585412
vn 0.909990 0.088476 0.405082
vn 0.909989 0.088476 0.405082
vn 0.974319 0.088474 0.207061
vn 0.974319 0.088474 0.207061
vn 0.996079 0.088473 0.000002
vn 0.996079 0.088473 0.000002
vn 0.000000 -1.000000 0.000001
vn 0.000000 -1.000000 0.000000
vn 0.000000 -1.000000 -0.000000
vn 0.000000 -1.000000 0.000000
vn 0.000000 -1.000000 0.000000
vn 0.000000 -1.000000 0.000000
vn 0.000000 -1.000000 0.000000
vn 0.000000 -1.000000 0.000000
vn 0.000000 -1.000000 -0.000000
vn 0.000000 -1.000000 -0.000000
vn 0.000000 -1.000000 -0.000001
vn 0.000000 -1.000000 -0.000001
vn 0.000000 -1.000000 0.000000
vn 0.000000 -1.000000 0.000000
vn 0.000000 -1.000000 0.000000
vn 0.000000 -1.000000 0.000000
vn 0.000000 -1.000000 0.000000
vn 0.000000 -1.000000 0.000000
vn 0.000000 -1.000000 0.000000
vn 0.000000 -1.000000 0.000000
vn 0.000000 -1.000000 0.000000
vn 0.000000 -1.000000 -0.000000
vn 0.000000 -1.000000 -0.000000
vn 0.000000 -1.000000 0.000000
vn 0.000000 -1.000000 0.000000
vn 0.000000 -1.000000 0.000000
vn 0.000000 -1.000000 -0.000001
vn 0.000000 -1.000000 -0.000001
vn 0.000000 -1.000000 0.000001
vn 0.000000 -1.000000 0.000001
vn 0.000000 -1.000000 -0.000001
vn 0.000000 1.000000 0.000000
vn 0.000000 1.000000 0.000000
vn 0.000000 1.000000 -0.000000
vn 0.000000 1.000000 0.000000
vn 0.000000 1.000000 0.000000
vn 0.000000 1.000000 0.000001
vn 0.000000 1.000000 0.000000
vn 0.000000 1.000000 -0.000001
vn 0.000000 1.000000 0.000000
vn 0.000000 1.000000 0.000001
vn 0.000000 1.000000 0.000000
vn 0.000000 1.000000 -0.000002
vn 0.000000 1.000000 -0.000001
vn 0.000000 1.000000 0.000000
vn 0.000000 1.000000 0.000001
vn 0.000000 1.000000 0.000000
vn 0.000000 1.000000 -0.000001
vn 0.000000 1.000000 0.000001
vn 0.000000 1.000000 0.000001
vn 0.000000 1.000000 0.000000
vn 0.000000 1.000000 -0.000001
vn 0.000000 1.000000 -0.000001
vn 0.000000 1.000000 0.000000
vn 0.000000 1.000000 0.000000
vn 0.000000 1.000000 0.000000
vn 0.000000 1.000000 0.000001
vn 0.000000 1.000000 -0.000001
vn 0.000000 1.000000 -0.000001
vn 0.000000 1.000000 0.000000
vn 0.000000 1.000000 0.000000
vn 0.000000 1.000000 0.000000
s 1
f 1/1/1 2/2/2 32/3/3 31/4/4
f 2/2/2 3/5/5 33/6/6 32/3/3
f 3/5/5 4/7/7 34/8/8 33/6/6
f 4/7/7 5/9/9 35/10/10 34/8/8
f 5/9/9 6/11/11 36/12/12 35/10/10
f 6/11/11 7/13/13 37/14/14 36/12/12
f 7/13/13 8/15/15 38/16/16 37/14/14
f 8/15/15 9/17/17 39/18/18 38/16/16
f 9/17/17 10/19/19 40/20/20 39/18/18
f 10/19/19 11/21/21 41/22/22 40/20/20
f 11/21/21 12/23/23 42/24/24 41/22/22
f 12/23/23 13/25/25 43/26/26 42/24/24
f 13/25/25 14/27/27 44/28/28 43/26/26
f 14/27/27 15/29/29 45/30/30 44/28/28
f 15/29/29 16/31/31 46/32/32 45/30/30
f 16/31/31 17/33/33 47/34/34 46/32/32
f 17/33/33 18/35/35 48/36/36 47/34/34
f 18/35/35 19/37/37 49/38/38 48/36/36
f 19/37/37 20/39/39 50/40/40 49/38/38
f 20/39/39 21/41/41 51/42/42 50/40/40
f 21/41/41 22/43/43 52/44/44 51/42/42
f 22/43/43 23/45/45 53/46/46 52/44/44
f 23/45/45 24/47/47 54/48/48 53/46/46
f 24/47/47 25/49/49 55/50/50 54/48/48
f 25/49/49 26/51/51 56/52/52 55/50/50
f 26/51/51 27/53/53 57/54/54 56/52/52
f 27/53/53 28/55/55 58/56/56 57/54/54
f 28/55/55 29/57/57 59/58/58 58/56/56
f 29/57/57 30/59/59 60/60/60 59/58/58
f 30/59/59 1/61/1 31/62/4 60/60/60
s 2
f 2/63/61 1/64/62 61/65/63
f 3/66/64 2/63/61 61/65/63
f 4/67/65 3/66/64 61/65/63
f 5/68/66 4/67/65 61/65/63
f 6/69/67 5/68/66 61/65/63
f 7/70/68 6/69/67 61/65/63
f 8/71/69 7/70/68 61/65/63
f 9/72/70 8/71/69 61/65/63
f 10/73/71 9/72/70 61/65/63
f 11/74/72 10/73/71 61/65/63
f 12/75/73 11/74/72 61/65/63
f 13/76/74 12/75/73 61/65/63
f 14/77/75 13/76/74 61/65/63
f 15/78/76 14/77/75 61/65/63
f 16/79/77 15/78/76 61/65/63
f 17/80/78 16/79/77 61/65/63
f 18/81/79 17/80/78 61/65/63
f 19/82/80 18/81/79 61/65/63
f 20/83/81 19/82/80 61/65/63
f 21/84/82 20/83/81 61/65/63
f 22/85/83 21/84/82 61/65/63
f 23/86/84 22/85/83 61/65/63
f 24/87/85 23/86/84 61/65/63
f 25/88/86 24/87/85 61/65/63
f 26/89/87 25/88/86 61/65/63
f 27/90/88 26/89/87 61/65/63
f 28/91/89 27/90/88 61/65/63
f 29/92/90 28/91/89 61/65/63
f 30/93/91 29/92/90 61/65/63
f 1/64/62 30/93/91 61/65/63
s 3
f 31/94/92 32/95/93 62/96/94
f 32/95/93 33/97/95 62/96/94
f 33/97/95 34/98/96 62/96/94
f 34/98/96 35/99/97 62/96/94
f 35/99/97 36/100/98 62/96/94
f 36/100/98 37/101/99 62/96/94
f 37/101/99 38/102/100 62/96/94
f 38/102/100 39/103/101 62/96/94
f 39/103/101 40/104/102 62/96/94
f 40/104/102 41/105/103 62/96/94
f 41/105/103 42/106/104 62/96/94
f 42/106/104 43/107/105 62/96/94
f 43/107/105 44/108/106 62/96/94
f 44/108/106 45/109/107 62/96/94
f 45/109/107 46/110/108 62/96/94
f 46/110/108 47/111/109 62/96/94
f 47/111/109 48/112/110 62/96/94
f 48/112/110 49/113/111 62/96/94
f 49/113/111 50/114/112 62/96/94
f 50/114/112 51/115/113 62/96/94
f 51/115/113 52/116/114 62/96/94
f 52/116/114 53/117/115 62/96/94
f 53/117/115 54/118/116 62/96/94
f 54/118/116 55/119/117 62/96/94
f 55/119/117 56/120/118 62/96/94
f 56/120/118 57/121/119 62/96/94
f 57/121/119 58/122/120 62/96/94
f 58/122/120 59/123/121 62/96/94
f 59/123/121 60/124/122 62/96/94
f 60/124/122 31/94/92 62/96/94
