# This file uses centimeters as units for non-parametric coordinates.

mtllib LavaLamp_glass.mtl
g default
v 1.169831 2.104592 -0.380101
v 0.995117 2.104592 -0.722995
v 0.722995 2.104592 -0.995117
v 0.380101 2.104592 -1.169830
v 0.000000 2.104592 -1.230032
v -0.380101 2.104592 -1.169830
v -0.722995 2.104592 -0.995117
v -0.995117 2.104592 -0.722995
v -1.169830 2.104592 -0.380101
v -1.230032 2.104592 0.000000
v -1.169830 2.104592 0.380101
v -0.995117 2.104592 0.722995
v -0.722995 2.104592 0.995117
v -0.380101 2.104592 1.169830
v -0.000000 2.104592 1.230032
v 0.380101 2.104592 1.169830
v 0.722995 2.104592 0.995117
v 0.995117 2.104592 0.722995
v 1.169830 2.104592 0.380101
v 1.230032 2.104592 0.000000
v 1.167771 7.794762 -0.379432
v 0.993366 7.794762 -0.721722
v 0.721722 7.794762 -0.993365
v 0.379432 7.794762 -1.167771
v 0.000000 7.794762 -1.227867
v -0.379432 7.794762 -1.167771
v -0.721722 7.794762 -0.993365
v -0.993365 7.794762 -0.721722
v -1.167771 7.794762 -0.379432
v -1.227867 7.794762 0.000000
v -1.167771 7.794762 0.379432
v -0.993365 7.794762 0.721722
v -0.721722 7.794762 0.993365
v -0.379432 7.794762 1.167771
v -0.000000 7.794762 1.227867
v 0.379432 7.794762 1.167771
v 0.721722 7.794762 0.993365
v 0.993365 7.794762 0.721722
v 1.167771 7.794762 0.379432
v 1.227867 7.794762 0.000000
v 0.000000 5.711600 0.000000
v 0.000000 7.711600 0.000000
v 1.375549 3.249149 -0.446943
v 1.446337 3.249149 0.000000
v 1.375548 3.249149 0.446943
v 1.170111 3.249149 0.850136
v 0.850136 3.249149 1.170112
v 0.446943 3.249149 1.375548
v -0.000000 3.249149 1.446337
v -0.446943 3.249149 1.375549
v -0.850136 3.249149 1.170112
v -1.170112 3.249149 0.850136
v -1.375549 3.249149 0.446943
v -1.446337 3.249149 0.000000
v -1.375549 3.249149 -0.446943
v -1.170112 3.249149 -0.850136
v -0.850136 3.249149 -1.170112
v -0.446943 3.249149 -1.375549
v 0.000000 3.249149 -1.446338
v 0.446943 3.249149 -1.375549
v 0.850136 3.249149 -1.170112
v 1.170112 3.249149 -0.850136
v 1.512426 4.756187 -0.491417
v 1.590258 4.756187 0.000000
v 1.512425 4.756187 0.491417
v 1.286546 4.756187 0.934730
v 0.934730 4.756187 1.286546
v 0.491417 4.756187 1.512425
v 0.000000 4.756187 1.590258
v -0.491417 4.756187 1.512425
v -0.934730 4.756187 1.286546
v -1.286546 4.756187 0.934730
v -1.512425 4.756187 0.491417
v -1.590258 4.756187 0.000000
v -1.512425 4.756187 -0.491417
v -1.286546 4.756187 -0.934730
v -0.934730 4.756187 -1.286546
v -0.491417 4.756187 -1.512425
v 0.000000 4.756187 -1.590258
v 0.491417 4.756187 -1.512426
v 0.934731 4.756187 -1.286546
v 1.286546 4.756187 -0.934730
v 1.322722 6.825183 -0.429778
v 1.390791 6.825183 0.000000
v 1.322721 6.825183 0.429778
v 1.125174 6.825183 0.817487
v 0.817487 6.825183 1.125174
v 0.429778 6.825183 1.322721
v 0.000000 6.825183 1.390791
v -0.429778 6.825183 1.322721
v -0.817487 6.825183 1.125174
v -1.125174 6.825183 0.817487
v -1.322721 6.825183 0.429778
v -1.390791 6.825183 0.000000
v -1.322721 6.825183 -0.429778
v -1.125174 6.825183 -0.817487
v -0.817487 6.825183 -1.125174
v -0.429778 6.825183 -1.322721
v 0.000000 6.825183 -1.390792
v 0.429778 6.825183 -1.322722
v 0.817487 6.825183 -1.125174
v 1.125175 6.825183 -0.817487
v 1.495073 5.241519 -0.485778
v 1.572011 5.241519 0.000000
v 1.495071 5.241519 0.485778
v 1.271784 5.241519 0.924005
v 0.924005 5.241519 1.271784
v 0.485778 5.241519 1.495071
v 0.000000 5.241519 1.572011
v -0.485778 5.241519 1.495072
v -0.924005 5.241519 1.271784
v -1.271784 5.241519 0.924005
v -1.495072 5.241519 0.485778
v -1.572011 5.241519 0.000000
v -1.495072 5.241519 -0.485778
v -1.271784 5.241519 -0.924005
v -0.924005 5.241519 -1.271784
v -0.485778 5.241519 -1.495072
v 0.000000 5.241519 -1.572012
v 0.485778 5.241519 -1.495072
v 0.924006 5.241519 -1.271785
v 1.271785 5.241519 -0.924006
v 1.434839 6.051395 0.466207
v 1.220547 6.051395 0.886779
v 0.886779 6.051395 1.220547
v 0.466207 6.051395 1.434839
v 0.000000 6.051395 1.508679
v -0.466207 6.051395 1.434839
v -0.886779 6.051395 1.220547
v -1.220547 6.051395 0.886779
v -1.434839 6.051395 0.466208
v -1.508679 6.051395 0.000000
v -1.434839 6.051395 -0.466207
v -1.220547 6.051395 -0.886779
v -0.886779 6.051395 -1.220547
v -0.466208 6.051395 -1.434839
v 0.000000 6.051395 -1.508679
v 0.466208 6.051395 -1.434839
v 0.886780 6.051395 -1.220547
v 1.220548 6.051395 -0.886780
v 1.434840 6.051395 -0.466208
v 1.508679 6.051395 0.000000
v 1.498276 3.985892 0.486819
v 1.274509 3.985892 0.925985
v 0.925985 3.985892 1.274510
v 0.486819 3.985892 1.498276
v 0.000000 3.985892 1.575380
v -0.486819 3.985892 1.498276
v -0.925985 3.985892 1.274510
v -1.274509 3.985892 0.925985
v -1.498276 3.985892 0.486819
v -1.575380 3.985892 0.000000
v -1.498276 3.985892 -0.486819
v -1.274510 3.985892 -0.925985
v -0.925985 3.985892 -1.274510
v -0.486819 3.985892 -1.498276
v 0.000000 3.985892 -1.575381
v 0.486820 3.985892 -1.498276
v 0.925986 3.985892 -1.274510
v 1.274510 3.985892 -0.925986
v 1.498276 3.985892 -0.486819
v 1.575380 3.985892 0.000000
vt 0.648603 0.107966
vt 0.626409 0.064408
vt 0.591842 0.029841
vt 0.548284 0.007647
vt 0.500000 -0.000000
vt 0.451716 0.007647
vt 0.408159 0.029841
vt 0.373591 0.064409
vt 0.351397 0.107966
vt 0.343750 0.156250
vt 0.351397 0.204534
vt 0.373591 0.248091
vt 0.408159 0.282659
vt 0.451716 0.304853
vt 0.500000 0.312500
vt 0.548284 0.304853
vt 0.591841 0.282659
vt 0.626409 0.248091
vt 0.648603 0.204534
vt 0.656250 0.156250
vt 0.375000 0.312500
vt 0.387500 0.312500
vt 0.400000 0.312500
vt 0.412500 0.312500
vt 0.425000 0.312500
vt 0.437500 0.312500
vt 0.450000 0.312500
vt 0.462500 0.312500
vt 0.475000 0.312500
vt 0.487500 0.312500
vt 0.500000 0.312500
vt 0.512500 0.312500
vt 0.525000 0.312500
vt 0.537500 0.312500
vt 0.550000 0.312500
vt 0.562500 0.312500
vt 0.575000 0.312500
vt 0.587500 0.312500
vt 0.600000 0.312500
vt 0.612500 0.312500
vt 0.625000 0.312500
vt 0.375000 0.688440
vt 0.387500 0.688440
vt 0.400000 0.688440
vt 0.412500 0.688440
vt 0.425000 0.688440
vt 0.437500 0.688440
vt 0.450000 0.688440
vt 0.462500 0.688440
vt 0.475000 0.688440
vt 0.487500 0.688440
vt 0.500000 0.688440
vt 0.512500 0.688440
vt 0.525000 0.688440
vt 0.537500 0.688440
vt 0.550000 0.688440
vt 0.562500 0.688440
vt 0.575000 0.688440
vt 0.587500 0.688440
vt 0.600000 0.688440
vt 0.612500 0.688440
vt 0.625000 0.688440
vt 0.648603 0.795466
vt 0.626409 0.751908
vt 0.591842 0.717341
vt 0.548284 0.695147
vt 0.500000 0.687500
vt 0.451716 0.695147
vt 0.408159 0.717341
vt 0.373591 0.751909
vt 0.351397 0.795466
vt 0.343750 0.843750
vt 0.351397 0.892034
vt 0.373591 0.935591
vt 0.408159 0.970159
vt 0.451716 0.992353
vt 0.500000 1.000000
vt 0.548284 0.992353
vt 0.591841 0.970159
vt 0.626409 0.935591
vt 0.648603 0.892034
vt 0.656250 0.843750
vt 0.500000 0.150000
vt 0.500000 0.837500
vt 0.625000 0.388119
vt 0.375000 0.388119
vt 0.612500 0.388119
vt 0.600000 0.388119
vt 0.587500 0.388119
vt 0.575000 0.388119
vt 0.562500 0.388119
vt 0.550000 0.388119
vt 0.537500 0.388119
vt 0.525000 0.388119
vt 0.512500 0.388119
vt 0.500000 0.388119
vt 0.487500 0.388119
vt 0.475000 0.388119
vt 0.462500 0.388119
vt 0.450000 0.388119
vt 0.437500 0.388119
vt 0.425000 0.388119
vt 0.412500 0.388119
vt 0.400000 0.388119
vt 0.387500 0.388119
vt 0.625000 0.487686
vt 0.375000 0.487686
vt 0.612500 0.487686
vt 0.600000 0.487686
vt 0.587500 0.487686
vt 0.575000 0.487686
vt 0.562500 0.487686
vt 0.550000 0.487686
vt 0.537500 0.487686
vt 0.525000 0.487686
vt 0.512500 0.487686
vt 0.500000 0.487686
vt 0.487500 0.487686
vt 0.475000 0.487686
vt 0.462500 0.487686
vt 0.450000 0.487686
vt 0.437500 0.487686
vt 0.425000 0.487686
vt 0.412500 0.487686
vt 0.400000 0.487686
vt 0.387500 0.487686
vt 0.625000 0.624381
vt 0.375000 0.624381
vt 0.612500 0.624381
vt 0.600000 0.624381
vt 0.587500 0.624381
vt 0.575000 0.624381
vt 0.562500 0.624381
vt 0.550000 0.624381
vt 0.537500 0.624381
vt 0.525000 0.624381
vt 0.512500 0.624381
vt 0.500000 0.624381
vt 0.487500 0.624381
vt 0.475000 0.624381
vt 0.462500 0.624381
vt 0.450000 0.624381
vt 0.437500 0.624381
vt 0.425000 0.624381
vt 0.412500 0.624381
vt 0.400000 0.624381
vt 0.387500 0.624381
vt 0.625000 0.519751
vt 0.375000 0.519751
vt 0.612500 0.519751
vt 0.600000 0.519751
vt 0.587500 0.519751
vt 0.575000 0.519751
vt 0.562500 0.519751
vt 0.550000 0.519751
vt 0.537500 0.519751
vt 0.525000 0.519751
vt 0.512500 0.519751
vt 0.500000 0.519751
vt 0.487500 0.519751
vt 0.475000 0.519751
vt 0.462500 0.519751
vt 0.450000 0.519751
vt 0.437500 0.519751
vt 0.425000 0.519751
vt 0.412500 0.519751
vt 0.400000 0.519751
vt 0.387500 0.519751
vt 0.600000 0.573259
vt 0.587500 0.573259
vt 0.575000 0.573259
vt 0.562500 0.573259
vt 0.550000 0.573259
vt 0.537500 0.573259
vt 0.525000 0.573259
vt 0.512500 0.573259
vt 0.500000 0.573259
vt 0.487500 0.573259
vt 0.475000 0.573259
vt 0.462500 0.573259
vt 0.450000 0.573259
vt 0.437500 0.573259
vt 0.425000 0.573259
vt 0.412500 0.573259
vt 0.400000 0.573259
vt 0.387500 0.573259
vt 0.625000 0.573259
vt 0.375000 0.573259
vt 0.612500 0.573259
vt 0.600000 0.436794
vt 0.587500 0.436794
vt 0.575000 0.436794
vt 0.562500 0.436794
vt 0.550000 0.436794
vt 0.537500 0.436794
vt 0.525000 0.436794
vt 0.512500 0.436794
vt 0.500000 0.436794
vt 0.487500 0.436794
vt 0.475000 0.436794
vt 0.462500 0.436794
vt 0.450000 0.436794
vt 0.437500 0.436794
vt 0.425000 0.436794
vt 0.412500 0.436794
vt 0.400000 0.436794
vt 0.387500 0.436794
vt 0.625000 0.436794
vt 0.375000 0.436794
vt 0.612500 0.436794
vn 0.934515 -0.185699 -0.303641
vn 0.794946 -0.185699 -0.577562
vn 0.795795 -0.180052 -0.578179
vn 0.935514 -0.180052 -0.303966
vn 0.577562 -0.185699 -0.794946
vn 0.578179 -0.180052 -0.795795
vn 0.303642 -0.185699 -0.934515
vn 0.303966 -0.180052 -0.935514
vn -0.000000 -0.185699 -0.982607
vn -0.000000 -0.180052 -0.983657
vn -0.303642 -0.185699 -0.934514
vn -0.303967 -0.180052 -0.935514
vn -0.577562 -0.185699 -0.794945
vn -0.578179 -0.180052 -0.795795
vn -0.794946 -0.185699 -0.577562
vn -0.795795 -0.180052 -0.578179
vn -0.934514 -0.185699 -0.303642
vn -0.935513 -0.180052 -0.303967
vn -0.982607 -0.185699 0.000000
vn -0.983657 -0.180052 0.000000
vn -0.934515 -0.185699 0.303642
vn -0.935514 -0.180052 0.303967
vn -0.794945 -0.185699 0.577562
vn -0.795795 -0.180052 0.578179
vn -0.577562 -0.185699 0.794945
vn -0.578179 -0.180052 0.795795
vn -0.303642 -0.185699 0.934514
vn -0.303967 -0.180052 0.935513
vn 0.000000 -0.185699 0.982607
vn 0.000000 -0.180052 0.983657
vn 0.303642 -0.185699 0.934515
vn 0.303967 -0.180052 0.935513
vn 0.577562 -0.185699 0.794946
vn 0.578179 -0.180052 0.795795
vn 0.794946 -0.185699 0.577562
vn 0.795795 -0.180052 0.578179
vn 0.934515 -0.185699 0.303642
vn 0.935514 -0.180052 0.303967
vn 0.982607 -0.185699 0.000001
vn 0.983657 -0.180052 0.000001
vn -0.765719 -0.322761 0.556327
vn -0.900157 -0.322761 0.292478
vn -0.000000 -1.000000 -0.000005
vn -0.556327 -0.322761 0.765719
vn -0.292479 -0.322761 0.900156
vn 0.000000 -0.322761 0.946481
vn 0.292479 -0.322761 0.900156
vn 0.556327 -0.322761 0.765719
vn 0.765719 -0.322761 0.556327
vn 0.900156 -0.322761 0.292479
vn 0.946481 -0.322761 0.000000
vn 0.900156 -0.322761 -0.292479
vn 0.765719 -0.322761 -0.556327
vn 0.556327 -0.322761 -0.765719
vn 0.292479 -0.322761 -0.900156
vn -0.000000 -0.322761 -0.946481
vn -0.292479 -0.322761 -0.900156
vn -0.556327 -0.322761 -0.765719
vn -0.765719 -0.322761 -0.556327
vn -0.900156 -0.322761 -0.292478
vn -0.946481 -0.322761 -0.000001
vn -0.064267 0.997714 0.020881
vn -0.054668 0.997714 0.039719
vn -0.000000 1.000000 0.000000
vn -0.039719 0.997714 0.054668
vn -0.020881 0.997714 0.064267
vn 0.000000 0.997714 0.067574
vn 0.020881 0.997714 0.064267
vn 0.039719 0.997714 0.054668
vn 0.054668 0.997714 0.039719
vn 0.064267 0.997714 0.020882
vn 0.067574 0.997714 -0.000000
vn 0.064267 0.997714 -0.020882
vn 0.054668 0.997714 -0.039719
vn 0.039719 0.997714 -0.054668
vn 0.020881 0.997714 -0.064266
vn -0.000000 0.997714 -0.067574
vn -0.020881 0.997714 -0.064267
vn -0.039719 0.997714 -0.054668
vn -0.054668 0.997714 -0.039719
vn -0.064267 0.997714 -0.020882
vn -0.067574 0.997714 0.000000
vn 0.946976 -0.092541 -0.307690
vn 0.995709 -0.092541 0.000001
vn 0.946975 -0.092541 0.307691
vn 0.805545 -0.092541 0.585263
vn 0.585263 -0.092541 0.805545
vn 0.307691 -0.092541 0.946975
vn 0.000000 -0.092541 0.995709
vn -0.307691 -0.092541 0.946975
vn -0.585263 -0.092541 0.805546
vn -0.805545 -0.092541 0.585263
vn -0.946975 -0.092541 0.307691
vn -0.995709 -0.092541 0.000000
vn -0.946975 -0.092541 -0.307691
vn -0.805546 -0.092541 -0.585263
vn -0.585263 -0.092541 -0.805545
vn -0.307691 -0.092541 -0.946975
vn -0.000000 -0.092541 -0.995709
vn 0.307691 -0.092541 -0.946976
vn 0.585263 -0.092541 -0.805546
vn 0.805545 -0.092541 -0.585263
vn 0.999997 0.002644 0.000001
vn 0.951054 0.002644 -0.309015
vn 0.949197 0.062503 -0.308412
vn 0.998045 0.062503 0.000001
vn 0.951053 0.002644 0.309016
vn 0.949197 0.062503 0.308413
vn 0.809014 0.002644 0.587783
vn 0.807435 0.062503 0.586636
vn 0.587783 0.002644 0.809014
vn 0.586636 0.062503 0.807435
vn 0.309016 0.002644 0.951053
vn 0.308413 0.062503 0.949197
vn 0.000000 0.002644 0.999997
vn 0.000000 0.062503 0.998045
vn -0.309016 0.002644 0.951053
vn -0.308413 0.062503 0.949197
vn -0.587783 0.002644 0.809014
vn -0.586636 0.062503 0.807435
vn -0.809014 0.002644 0.587783
vn -0.807435 0.062503 0.586636
vn -0.951053 0.002644 0.309016
vn -0.949197 0.062503 0.308413
vn -0.999997 0.002644 -0.000000
vn -0.998045 0.062503 0.000000
vn -0.951053 0.002644 -0.309016
vn -0.949197 0.062503 -0.308413
vn -0.809014 0.002644 -0.587783
vn -0.807435 0.062503 -0.586636
vn -0.587783 0.002644 -0.809014
vn -0.586636 0.062503 -0.807435
vn -0.309016 0.002644 -0.951053
vn -0.308413 0.062503 -0.949197
vn -0.000000 0.002644 -0.999997
vn -0.000000 0.062503 -0.998045
vn 0.309016 0.002644 -0.951053
vn 0.308412 0.062503 -0.949197
vn 0.587783 0.002644 -0.809014
vn 0.586636 0.062503 -0.807435
vn 0.809014 0.002644 -0.587783
vn 0.807435 0.062503 -0.586636
vn 0.987355 0.158525 0.000001
vn 0.939031 0.158525 -0.305108
vn 0.937908 0.165713 -0.304744
vn 0.986174 0.165713 0.000001
vn 0.939031 0.158525 0.305109
vn 0.937907 0.165713 0.304744
vn 0.798787 0.158525 0.580353
vn 0.797831 0.165713 0.579659
vn 0.580353 0.158525 0.798787
vn 0.579659 0.165713 0.797832
vn 0.305110 0.158525 0.939030
vn 0.304745 0.165713 0.937907
vn 0.000000 0.158525 0.987355
vn -0.000000 0.165713 0.986174
vn -0.305109 0.158525 0.939030
vn -0.304744 0.165713 0.937907
vn -0.580353 0.158525 0.798787
vn -0.579659 0.165713 0.797831
vn -0.798787 0.158525 0.580353
vn -0.797832 0.165713 0.579659
vn -0.939030 0.158525 0.305110
vn -0.937907 0.165713 0.304745
vn -0.987355 0.158525 0.000000
vn -0.986174 0.165713 0.000000
vn -0.939031 0.158525 -0.305109
vn -0.937907 0.165713 -0.304744
vn -0.798787 0.158525 -0.580352
vn -0.797832 0.165713 -0.579658
vn -0.580353 0.158525 -0.798787
vn -0.579659 0.165713 -0.797831
vn -0.305109 0.158525 -0.939030
vn -0.304744 0.165713 -0.937907
vn -0.000000 0.158525 -0.987355
vn -0.000000 0.165713 -0.986174
vn 0.305109 0.158525 -0.939031
vn 0.304744 0.165713 -0.937907
vn 0.580353 0.158525 -0.798787
vn 0.579658 0.165713 -0.797832
vn 0.798787 0.158525 -0.580353
vn 0.797831 0.165713 -0.579659
vn 0.945054 0.112174 -0.307066
vn 0.993689 0.112174 0.000001
vn 0.945054 0.112174 0.307067
vn 0.803911 0.112174 0.584075
vn 0.584075 0.112174 0.803911
vn 0.307067 0.112174 0.945054
vn 0.000000 0.112174 0.993689
vn -0.307067 0.112174 0.945054
vn -0.584076 0.112174 0.803911
vn -0.803911 0.112174 0.584076
vn -0.945054 0.112174 0.307067
vn -0.993689 0.112174 0.000000
vn -0.945054 0.112174 -0.307067
vn -0.803911 0.112174 -0.584075
vn -0.584076 0.112174 -0.803911
vn -0.307067 0.112174 -0.945054
vn -0.000000 0.112174 -0.993689
vn 0.307066 0.112174 -0.945054
vn 0.584075 0.112174 -0.803911
vn 0.803911 0.112174 -0.584076
s 1
g pCylinder4
usemtl initialShadingGroup
f 1/21/1 2/22/2 62/105/3 43/86/4
f 2/22/2 3/23/5 61/104/6 62/105/3
f 3/23/5 4/24/7 60/103/8 61/104/6
f 4/24/7 5/25/9 59/102/10 60/103/8
f 5/25/9 6/26/11 58/101/12 59/102/10
f 6/26/11 7/27/13 57/100/14 58/101/12
f 7/27/13 8/28/15 56/99/16 57/100/14
f 8/28/15 9/29/17 55/98/18 56/99/16
f 9/29/17 10/30/19 54/97/20 55/98/18
f 10/30/19 11/31/21 53/96/22 54/97/20
f 11/31/21 12/32/23 52/95/24 53/96/22
f 12/32/23 13/33/25 51/94/26 52/95/24
f 13/33/25 14/34/27 50/93/28 51/94/26
f 14/34/27 15/35/29 49/92/30 50/93/28
f 15/35/29 16/36/31 48/91/32 49/92/30
f 16/36/31 17/37/33 47/90/34 48/91/32
f 17/37/33 18/38/35 46/89/36 47/90/34
f 18/38/35 19/39/37 45/88/38 46/89/36
f 19/39/37 20/40/39 44/87/40 45/88/38
f 20/40/39 1/41/1 43/85/4 44/87/40
s 2
f 2/2/41 1/1/42 41/83/43
f 3/3/44 2/2/41 41/83/43
f 4/4/45 3/3/44 41/83/43
f 5/5/46 4/4/45 41/83/43
f 6/6/47 5/5/46 41/83/43
f 7/7/48 6/6/47 41/83/43
f 8/8/49 7/7/48 41/83/43
f 9/9/50 8/8/49 41/83/43
f 10/10/51 9/9/50 41/83/43
f 11/11/52 10/10/51 41/83/43
f 12/12/53 11/11/52 41/83/43
f 13/13/54 12/12/53 41/83/43
f 14/14/55 13/13/54 41/83/43
f 15/15/56 14/14/55 41/83/43
f 16/16/57 15/15/56 41/83/43
f 17/17/58 16/16/57 41/83/43
f 18/18/59 17/17/58 41/83/43
f 19/19/60 18/18/59 41/83/43
f 20/20/61 19/19/60 41/83/43
f 1/1/42 20/20/61 41/83/43
s 3
f 21/81/62 22/80/63 42/84/64
f 22/80/63 23/79/65 42/84/64
f 23/79/65 24/78/66 42/84/64
f 24/78/66 25/77/67 42/84/64
f 25/77/67 26/76/68 42/84/64
f 26/76/68 27/75/69 42/84/64
f 27/75/69 28/74/70 42/84/64
f 28/74/70 29/73/71 42/84/64
f 29/73/71 30/72/72 42/84/64
f 30/72/72 31/71/73 42/84/64
f 31/71/73 32/70/74 42/84/64
f 32/70/74 33/69/75 42/84/64
f 33/69/75 34/68/76 42/84/64
f 34/68/76 35/67/77 42/84/64
f 35/67/77 36/66/78 42/84/64
f 36/66/78 37/65/79 42/84/64
f 37/65/79 38/64/80 42/84/64
f 38/64/80 39/63/81 42/84/64
f 39/63/81 40/82/82 42/84/64
f 40/82/82 21/81/62 42/84/64
s 1
f 44/87/40 43/85/4 161/208/83 162/210/84
f 45/88/38 44/87/40 162/210/84 143/190/85
f 46/89/36 45/88/38 143/190/85 144/191/86
f 47/90/34 46/89/36 144/191/86 145/192/87
f 48/91/32 47/90/34 145/192/87 146/193/88
f 49/92/30 48/91/32 146/193/88 147/194/89
f 50/93/28 49/92/30 147/194/89 148/195/90
f 51/94/26 50/93/28 148/195/90 149/196/91
f 52/95/24 51/94/26 149/196/91 150/197/92
f 53/96/22 52/95/24 150/197/92 151/198/93
f 54/97/20 53/96/22 151/198/93 152/199/94
f 55/98/18 54/97/20 152/199/94 153/200/95
f 56/99/16 55/98/18 153/200/95 154/201/96
f 57/100/14 56/99/16 154/201/96 155/202/97
f 58/101/12 57/100/14 155/202/97 156/203/98
f 59/102/10 58/101/12 156/203/98 157/204/99
f 60/103/8 59/102/10 157/204/99 158/205/100
f 61/104/6 60/103/8 158/205/100 159/206/101
f 62/105/3 61/104/6 159/206/101 160/207/102
f 43/86/4 62/105/3 160/207/102 161/209/83
f 64/108/103 63/106/104 103/148/105 104/150/106
f 65/109/107 64/108/103 104/150/106 105/151/108
f 66/110/109 65/109/107 105/151/108 106/152/110
f 67/111/111 66/110/109 106/152/110 107/153/112
f 68/112/113 67/111/111 107/153/112 108/154/114
f 69/113/115 68/112/113 108/154/114 109/155/116
f 70/114/117 69/113/115 109/155/116 110/156/118
f 71/115/119 70/114/117 110/156/118 111/157/120
f 72/116/121 71/115/119 111/157/120 112/158/122
f 73/117/123 72/116/121 112/158/122 113/159/124
f 74/118/125 73/117/123 113/159/124 114/160/126
f 75/119/127 74/118/125 114/160/126 115/161/128
f 76/120/129 75/119/127 115/161/128 116/162/130
f 77/121/131 76/120/129 116/162/130 117/163/132
f 78/122/133 77/121/131 117/163/132 118/164/134
f 79/123/135 78/122/133 118/164/134 119/165/136
f 80/124/137 79/123/135 119/165/136 120/166/138
f 81/125/139 80/124/137 120/166/138 121/167/140
f 82/126/141 81/125/139 121/167/140 122/168/142
f 63/107/104 82/126/141 122/168/142 103/149/105
f 84/129/143 83/127/144 21/62/145 40/61/146
f 85/130/147 84/129/143 40/61/146 39/60/148
f 86/131/149 85/130/147 39/60/148 38/59/150
f 87/132/151 86/131/149 38/59/150 37/58/152
f 88/133/153 87/132/151 37/58/152 36/57/154
f 89/134/155 88/133/153 36/57/154 35/56/156
f 90/135/157 89/134/155 35/56/156 34/55/158
f 91/136/159 90/135/157 34/55/158 33/54/160
f 92/137/161 91/136/159 33/54/160 32/53/162
f 93/138/163 92/137/161 32/53/162 31/52/164
f 94/139/165 93/138/163 31/52/164 30/51/166
f 95/140/167 94/139/165 30/51/166 29/50/168
f 96/141/169 95/140/167 29/50/168 28/49/170
f 97/142/171 96/141/169 28/49/170 27/48/172
f 98/143/173 97/142/171 27/48/172 26/47/174
f 99/144/175 98/143/173 26/47/174 25/46/176
f 100/145/177 99/144/175 25/46/176 24/45/178
f 101/146/179 100/145/177 24/45/178 23/44/180
f 102/147/181 101/146/179 23/44/180 22/43/182
f 83/128/144 102/147/181 22/43/182 21/42/145
f 104/150/106 103/148/105 141/187/183 142/189/184
f 105/151/108 104/150/106 142/189/184 123/169/185
f 106/152/110 105/151/108 123/169/185 124/170/186
f 107/153/112 106/152/110 124/170/186 125/171/187
f 108/154/114 107/153/112 125/171/187 126/172/188
f 109/155/116 108/154/114 126/172/188 127/173/189
f 110/156/118 109/155/116 127/173/189 128/174/190
f 111/157/120 110/156/118 128/174/190 129/175/191
f 112/158/122 111/157/120 129/175/191 130/176/192
f 113/159/124 112/158/122 130/176/192 131/177/193
f 114/160/126 113/159/124 131/177/193 132/178/194
f 115/161/128 114/160/126 132/178/194 133/179/195
f 116/162/130 115/161/128 133/179/195 134/180/196
f 117/163/132 116/162/130 134/180/196 135/181/197
f 118/164/134 117/163/132 135/181/197 136/182/198
f 119/165/136 118/164/134 136/182/198 137/183/199
f 120/166/138 119/165/136 137/183/199 138/184/200
f 121/167/140 120/166/138 138/184/200 139/185/201
f 122/168/142 121/167/140 139/185/201 140/186/202
f 103/149/105 122/168/142 140/186/202 141/188/183
f 124/170/186 123/169/185 85/130/147 86/131/149
f 125/171/187 124/170/186 86/131/149 87/132/151
f 126/172/188 125/171/187 87/132/151 88/133/153
f 127/173/189 126/172/188 88/133/153 89/134/155
f 128/174/190 127/173/189 89/134/155 90/135/157
f 129/175/191 128/174/190 90/135/157 91/136/159
f 130/176/192 129/175/191 91/136/159 92/137/161
f 131/177/193 130/176/192 92/137/161 93/138/163
f 132/178/194 131/177/193 93/138/163 94/139/165
f 133/179/195 132/178/194 94/139/165 95/140/167
f 134/180/196 133/179/195 95/140/167 96/141/169
f 135/181/197 134/180/196 96/141/169 97/142/171
f 136/182/198 135/181/197 97/142/171 98/143/173
f 137/183/199 136/182/198 98/143/173 99/144/175
f 138/184/200 137/183/199 99/144/175 100/145/177
f 139/185/201 138/184/200 100/145/177 101/146/179
f 140/186/202 139/185/201 101/146/179 102/147/181
f 141/188/183 140/186/202 102/147/181 83/128/144
f 142/189/184 141/187/183 83/127/144 84/129/143
f 123/169/185 142/189/184 84/129/143 85/130/147
f 144/191/86 143/190/85 65/109/107 66/110/109
f 145/192/87 144/191/86 66/110/109 67/111/111
f 146/193/88 145/192/87 67/111/111 68/112/113
f 147/194/89 146/193/88 68/112/113 69/113/115
f 148/195/90 147/194/89 69/113/115 70/114/117
f 149/196/91 148/195/90 70/114/117 71/115/119
f 150/197/92 149/196/91 71/115/119 72/116/121
f 151/198/93 150/197/92 72/116/121 73/117/123
f 152/199/94 151/198/93 73/117/123 74/118/125
f 153/200/95 152/199/94 74/118/125 75/119/127
f 154/201/96 153/200/95 75/119/127 76/120/129
f 155/202/97 154/201/96 76/120/129 77/121/131
f 156/203/98 155/202/97 77/121/131 78/122/133
f 157/204/99 156/203/98 78/122/133 79/123/135
f 158/205/100 157/204/99 79/123/135 80/124/137
f 159/206/101 158/205/100 80/124/137 81/125/139
f 160/207/102 159/206/101 81/125/139 82/126/141
f 161/209/83 160/207/102 82/126/141 63/107/104
f 162/210/84 161/208/83 63/106/104 64/108/103
f 143/190/85 162/210/84 64/108/103 65/109/107
